<svg width="46" height="33" viewBox="0 0 46 33" fill="none" xmlns="http://www.w3.org/2000/svg">
<mask id="mask0_2117_1046" style="mask-type:luminance" maskUnits="userSpaceOnUse" x="0" y="0" width="46" height="33">
<path d="M46 0.982544H0.627563V32.0175H46V0.982544Z" fill="white"/>
</mask>
<g mask="url(#mask0_2117_1046)">
<path d="M45.7261 2.80092C45.7213 2.80565 45.7166 2.80565 45.7166 2.81555L45.7067 2.82503C45.692 2.8401 45.6869 2.84483 45.692 2.84483L31.6154 17.6357L28.2998 21.1205C28.2939 21.1161 28.2871 21.1129 28.28 21.111L28.2214 21.0817L14.6638 15.0319L15.1581 14.8019L17.4437 13.7302L20.6301 12.2373C20.6357 12.2326 20.6424 12.2292 20.6495 12.2274H20.6546L44.4321 1.09275C44.659 0.986158 44.9161 0.960794 45.1598 1.02091C45.4031 1.08102 45.6188 1.22298 45.7704 1.42301C45.922 1.62305 46.0003 1.86904 45.9922 2.11985C45.984 2.37066 45.8901 2.61109 45.7261 2.80092Z" fill="#FFBD5C"/>
<g style="mix-blend-mode:multiply" opacity="0.2">
<path d="M0.81373 10.1973H0.822255C0.813725 10.2051 0.813729 10.213 0.80591 10.2215C0.805305 10.2171 0.805695 10.2127 0.807049 10.2085C0.808403 10.2043 0.810688 10.2005 0.81373 10.1973Z" fill="black"/>
</g>
<g style="mix-blend-mode:multiply" opacity="0.2">
<path d="M28.3033 21.1201C28.3033 21.1201 27.8576 20.9586 27.0843 20.665C26.3092 20.3567 25.2047 19.9459 23.8884 19.4072C22.5716 18.8784 21.0396 18.2472 19.4102 17.5522C17.7809 16.8572 16.0477 16.0938 14.315 15.3304C13.4538 14.9385 12.5927 14.5518 11.7457 14.1652C10.8987 13.7884 10.0715 13.3901 9.26418 13.0202C7.65894 12.271 6.16607 11.5562 4.89324 10.9254C4.25209 10.6167 3.67466 10.3226 3.1558 10.059C2.90132 9.92987 2.65674 9.80414 2.44101 9.70165C2.24737 9.61045 2.0327 9.57329 1.81967 9.59401C1.51088 9.62208 1.22155 9.75703 1.00154 9.97551C0.982213 9.99385 0.964225 10.0136 0.947719 10.0345C0.932648 10.0491 0.918012 10.0685 0.904664 10.0832C0.890354 10.0963 0.87724 10.1108 0.865479 10.1262C1.03695 9.84926 1.30414 9.64494 1.61633 9.55198C1.92852 9.45902 2.26397 9.48395 2.559 9.62199L14.6681 15.0302L15.1624 14.8003C16.7126 15.5 18.2606 16.2002 19.7095 16.8805C21.3147 17.6293 22.8076 18.3488 24.0847 18.9753C25.3619 19.6018 26.4099 20.1448 27.1488 20.5168C27.7017 20.801 28.0738 20.9965 28.2253 21.0801L28.2839 21.1093C28.291 21.1117 28.2975 21.1153 28.3033 21.1201Z" fill="black"/>
</g>
<path d="M28.3028 21.1205L22.9634 26.7346C22.9597 26.739 22.9565 26.7439 22.9539 26.7492C22.9539 26.7492 22.9488 26.7445 22.9488 26.7492L18.6906 31.2274C18.629 31.293 18.5637 31.3551 18.4952 31.4134C18.2273 31.6403 17.9154 31.8094 17.579 31.9099C17.2426 32.0105 16.889 32.0403 16.5406 31.9976C16.1921 31.9548 15.8563 31.8404 15.5542 31.6616C15.2521 31.4827 14.9902 31.2432 14.7852 30.9583L6.29303 19.1626V19.1579C6.28312 19.1527 6.28312 19.148 6.28312 19.148L6.18064 19.0059L0.89468 11.669C0.741677 11.466 0.650571 11.2232 0.632314 10.9696C0.614057 10.7161 0.669428 10.4627 0.79177 10.2399C0.796316 10.2341 0.79968 10.2275 0.801671 10.2205L0.803589 10.2201L0.805186 10.219L0.806178 10.2173L0.806408 10.2154V10.2106C0.806042 10.2079 0.806278 10.2053 0.807098 10.2027C0.807918 10.2002 0.809302 10.1979 0.811145 10.196H0.81631C0.825783 10.1762 0.845593 10.1568 0.864969 10.1275C1.03644 9.85055 1.30363 9.64619 1.61582 9.55323C1.92801 9.46031 2.26346 9.48524 2.55849 9.62329L14.6676 15.0315L28.2253 21.0814L28.2838 21.1106C28.2907 21.1127 28.2971 21.1161 28.3028 21.1205Z" fill="#FFAA2E"/>
<g style="mix-blend-mode:multiply" opacity="0.2">
<path d="M31.6154 17.6361L28.2998 21.1209C28.2939 21.1165 28.2871 21.1133 28.28 21.1114L14.6638 15.0323L15.1581 14.8024L17.4437 13.7307L31.6154 17.6361Z" fill="black"/>
</g>
<g style="mix-blend-mode:screen" opacity="0.5">
<path d="M0.813637 10.1973H0.822082C0.813632 10.2128 0.805889 10.2213 0.805889 10.229C0.804742 10.2179 0.80748 10.2067 0.813637 10.1973Z" fill="white"/>
</g>
<g style="mix-blend-mode:screen" opacity="0.5">
<path d="M28.3033 21.1201C28.3033 21.1201 27.8576 20.9586 27.0843 20.665C26.3092 20.3567 25.2047 19.9459 23.8884 19.4072C22.5716 18.8784 21.0396 18.2472 19.4102 17.5522C17.7809 16.8572 16.0477 16.0938 14.315 15.3304C13.4538 14.9385 12.5927 14.5518 11.7457 14.1652C10.8987 13.7884 10.0715 13.3901 9.26418 13.0202C7.65894 12.271 6.16607 11.5562 4.89324 10.9254C4.25209 10.6167 3.67466 10.3226 3.1558 10.059C2.90132 9.92987 2.65674 9.80414 2.44101 9.70165C2.24737 9.61045 2.0327 9.57329 1.81967 9.59401C1.51088 9.62208 1.22155 9.75703 1.00154 9.97551C0.982213 9.99385 0.964225 10.0136 0.947719 10.0345C0.931996 10.0494 0.917594 10.0658 0.904664 10.0832C0.890354 10.0963 0.87724 10.1108 0.865479 10.1262C1.03695 9.84926 1.30414 9.64494 1.61633 9.55198C1.92852 9.45902 2.26397 9.48395 2.559 9.62199L14.6681 15.0302L28.2258 21.0801L28.2843 21.1093C28.2913 21.1117 28.2977 21.1154 28.3033 21.1201Z" fill="white"/>
</g>
<g style="mix-blend-mode:multiply" opacity="0.2">
<path d="M22.947 26.7499L18.6888 31.2281C18.6272 31.2937 18.5619 31.3558 18.4933 31.4141C18.2255 31.641 17.9135 31.8101 17.5772 31.9106C17.2408 32.0111 16.8872 32.041 16.5387 31.9982C16.1903 31.9555 15.8544 31.841 15.5523 31.6622C15.2502 31.4834 14.9884 31.2439 14.7833 30.9589L6.2912 19.1633C6.35019 19.227 6.59477 19.5155 6.98015 19.9814C7.41074 20.5196 8.04716 21.2783 8.77658 22.2084C9.506 23.1385 10.3525 24.2296 11.2383 25.4142C12.1292 26.5888 13.0541 27.8686 13.9842 29.1388L14.6692 30.1033L15.0068 30.5826L15.0951 30.7001C15.1174 30.7345 15.142 30.7672 15.1687 30.7983C15.2204 30.8683 15.278 30.9337 15.341 30.9938C15.5666 31.222 15.8397 31.3977 16.1408 31.5085C16.442 31.6193 16.7639 31.6625 17.0836 31.635C17.3962 31.6093 17.6999 31.5175 17.9745 31.3658C18.1059 31.2935 18.2289 31.2068 18.3413 31.1075L18.4395 31.0244L18.4783 30.9899L18.5213 30.9409L18.7022 30.7647C19.1818 30.2851 19.6422 29.8398 20.0727 29.4299C20.9197 28.6075 21.6539 27.9469 22.1529 27.4673C22.6003 27.0599 22.8837 26.8016 22.947 26.7499Z" fill="black"/>
</g>
<g style="mix-blend-mode:screen" opacity="0.5">
<path d="M45.858 2.56583C45.9178 2.4305 45.9476 2.28352 45.9441 2.13544C45.9407 1.98736 45.9045 1.84187 45.8386 1.70939C45.7508 1.51205 45.5992 1.34974 45.4085 1.2483C45.2181 1.14687 44.999 1.11213 44.7862 1.14962C44.5184 1.23821 44.2622 1.35819 44.0228 1.50702C43.7438 1.64868 43.4499 1.80067 43.1463 1.95698C41.9226 2.58866 40.4887 3.30819 38.9468 4.06689C38.1717 4.43893 37.376 4.84195 36.5583 5.22173C35.7406 5.60152 34.919 6.00025 34.0919 6.39166C32.4276 7.16672 30.7634 7.93318 29.1922 8.63332C27.6209 9.33347 26.153 9.97419 24.8862 10.5077C23.6186 11.0511 22.5515 11.4671 21.8074 11.7754C21.1663 12.0337 20.7551 12.1866 20.6574 12.2258L44.4349 1.09106C44.6618 0.985521 44.918 0.960968 45.1613 1.02149C45.4041 1.08202 45.619 1.22397 45.7701 1.4237C45.9213 1.62343 45.9992 1.86889 45.991 2.11917C45.9833 2.36946 45.8899 2.60947 45.7267 2.79923C45.7788 2.72655 45.8227 2.64827 45.858 2.56583Z" fill="white"/>
</g>
<g style="mix-blend-mode:screen" opacity="0.3">
<path d="M44.733 2.43377L42.9467 4.30857C41.6595 5.65946 40.3739 7.01028 39.0898 8.36087L21.3425 12.9863C25.5029 11.0383 29.6653 9.0903 33.8297 7.1423C37.143 5.59216 40.4586 4.03902 43.7762 2.48286C44.0944 2.33603 44.4127 2.18403 44.7309 2.03719C45.1205 1.85118 44.8988 2.25722 44.733 2.43377Z" fill="white"/>
</g>
<g style="mix-blend-mode:screen" opacity="0.3">
<path d="M26.6422 21.4481C25.8295 22.2953 25.0203 23.1452 24.2145 23.9981C23.9893 24.2332 23.7646 24.4718 23.5394 24.7077L2.01791 10.5042C2.26549 10.5483 2.50274 10.638 2.71763 10.7686C6.20286 12.3248 9.68936 13.8812 13.1772 15.4379C17.6659 17.4439 22.1543 19.4474 26.6422 21.4481Z" fill="white"/>
</g>
</g>
</svg>
